<svg xmlns="http://www.w3.org/2000/svg" viewBox="0 0 240 120" width="100%" height="100%" fill="none" preserveAspectRatio="xMidYMid meet" aria-hidden="true">
  <title>Vehicle Computing Lab</title>
  <path
    fill="#144733"
    fill-rule="evenodd"
    d="M16 92V68C16 50 34 40 52 38L78 36C94 34 108 30 122 26C138 22 156 20 172 24C188 28 200 38 208 50L218 64C221 70 224 78 224 86L224 92L16 92zM186 82A14 14 0 1 0 158 82A14 14 0 1 0 186 82zM74 82A12 12 0 1 0 50 82A12 12 0 1 0 74 82zM88 52h66v8H88z"
  />
  <path fill="none" stroke="#144733" stroke-width="3.5" stroke-linecap="round" d="M92 20q28-14 56 0M100 13q20-11 40 0M108 7q12-7 24 0" />
</svg>
